<?xml version="1.0" encoding="UTF-8" standalone="no"?>
<!-- Created with Inkscape (http://www.inkscape.org/) -->

<svg
   width="38.118759mm"
   height="46.14259mm"
   viewBox="0 0 38.118759 46.14259"
   version="1.1"
   id="svg1"
   xmlns="http://www.w3.org/2000/svg"
   xmlns:svg="http://www.w3.org/2000/svg">
  <defs
     id="defs1" />
  <g
     id="layer1"
     transform="translate(-85.989584,-125.67708)">
    <path
       id="path2"
       style="display:inline;fill:#4e8901;fill-opacity:1"
       d="m 133.26367,16.728516 c -0.34411,-0.02017 -0.73229,-0.01983 -1.16797,0.002 -6.97076,0.348537 -63.433195,2.43924 -94.453122,44.960937 C 6.6226522,104.2131 25.443359,149.87109 25.443359,149.87109 c 0,0 8.364846,-34.15534 28.580079,-66.917965 C 72.469156,53.05834 101.93272,39.835334 107.00195,37.726562 103.50372,39.264287 90.329831,46.573343 67.267578,77.027344 43.055308,108.99996 27.967061,174.14727 24.955914,188.01696 c -0.315405,1.45279 0.643524,2.73651 2.125032,2.86367 l 1.771391,0.15203 c 4.276543,0.36706 10.987343,-0.59437 15.009307,-2.0934 14.162016,-5.27832 45.940202,-16.63593 67.321946,-20.59551 28.23163,-5.22807 38.33946,-1.9e-4 47.75,-0.69727 9.41054,-0.69706 2.43946,-3.48437 2.43946,-3.48437 0,0 -11.15353,-6.97065 -40.7793,-3.13672 -29.625771,3.83392 -92.013672,26.14063 -92.013672,26.14063 l 16.033203,-29.97461 c 0,0 46.702992,-29.62606 60.644529,-51.58399 5.47883,-8.629148 10.38802,-22.141666 14.49414,-35.63867 -9.9273,0.51731 -22.509763,1.132812 -22.509762,1.132812 0,0 15.666302,-3.671015 26.462892,-14.917968 4.17432,-15.407343 7.05974,-28.426125 8.04297,-30.392578 1.96053,-3.921059 6.67733,-8.759997 1.51562,-9.0625 z"
       transform="matrix(0.26458333,0,0,0.26458333,80.754295,121.2549)" />
  </g>
</svg>
